<svg width="179" height="91" viewBox="0 0 179 91" fill="none" xmlns="http://www.w3.org/2000/svg">
<g style="mix-blend-mode:overlay">
<path d="M64.128 75.896H32L27.008 91H0.512L33.664 0.759995H62.72L95.744 91H69.12L64.128 75.896ZM57.856 56.952L48.128 27.512L38.272 56.952H57.856ZM160.762 44.408C166.138 45.688 170.362 48.3333 173.434 52.344C176.591 56.3547 178.17 61.0053 178.17 66.296C178.17 74.1467 175.567 80.248 170.362 84.6C165.157 88.8667 157.69 91 147.962 91H103.162V0.375999H146.938C156.069 0.375999 163.194 2.38133 168.314 6.392C173.519 10.4027 176.122 16.2053 176.122 23.8C176.122 29.176 174.714 33.6987 171.898 37.368C169.082 40.952 165.37 43.2987 160.762 44.408ZM128.378 36.6H141.05C147.365 36.6 150.522 33.9547 150.522 28.664C150.522 23.2027 147.322 20.472 140.922 20.472H128.378V36.6ZM142.586 70.776C149.157 70.776 152.442 68.0453 152.442 62.584C152.442 56.952 149.157 54.136 142.586 54.136H128.378V70.776H142.586Z" fill="white" fill-opacity="0.4"/>
</g>
</svg>
