<svg width="52" height="51" viewBox="0 0 52 51" fill="none" xmlns="http://www.w3.org/2000/svg">
<g clip-path="url(#clip0_1598_805)">
<path d="M43.4714 2.92395C43.3463 2.79897 43.1768 2.72876 43 2.72876C42.8232 2.72876 42.6537 2.79897 42.5287 2.92395L38.7574 6.69528C38.6937 6.75678 38.6429 6.83035 38.608 6.91168C38.573 6.99302 38.5546 7.0805 38.5539 7.16902C38.5531 7.25754 38.57 7.34532 38.6035 7.42725C38.637 7.50918 38.6865 7.58362 38.7491 7.64621C38.8117 7.70881 38.8861 7.75831 38.9681 7.79183C39.05 7.82535 39.1378 7.84222 39.2263 7.84145C39.3148 7.84068 39.4023 7.82229 39.4836 7.78735C39.565 7.75241 39.6385 7.70162 39.7 7.63795L42.3334 5.00462V13.8333C42.3334 14.0101 42.4036 14.1797 42.5286 14.3047C42.6536 14.4297 42.8232 14.4999 43 14.4999C43.1768 14.4999 43.3464 14.4297 43.4714 14.3047C43.5965 14.1797 43.6667 14.0101 43.6667 13.8333V5.00462L46.3 7.63795C46.4258 7.75939 46.5942 7.82659 46.769 7.82507C46.9438 7.82355 47.111 7.75343 47.2346 7.62983C47.3582 7.50622 47.4283 7.33902 47.4298 7.16422C47.4313 6.98942 47.3641 6.82102 47.2427 6.69528L43.4714 2.92395Z" fill="white"/>
</g>
<path d="M7.62703 28.5535C4.125 28.5535 1 31.7011 1 31.7011V50.5H51V24.5505C51 24.5505 49.375 22.338 46.8053 21.6215C42.1736 20.3301 41.5272 29.7581 37.4583 29.7581C34.4697 29.7581 34.2632 23.8671 30.2783 23.3301C26.2933 22.7931 24.4958 36.3213 18.0718 36.1688C13.2595 36.0546 10.3333 28.5535 7.62703 28.5535Z" fill="url(#paint0_linear_1598_805)"/>
<path d="M1 31.9066C1 31.9066 4.04674 28.7121 7.55462 28.7121C10.4741 28.7121 13.1964 36.3819 18.0168 36.4987C24.4515 36.6546 26.2521 22.8222 30.2437 23.3712C34.2353 23.9203 34.4421 29.9438 37.4357 29.9438C41.5114 29.9438 42.1589 20.3038 46.7983 21.6242C49.3723 22.3568 51 24.6191 51 24.6191" stroke="white" stroke-linecap="round"/>
<defs>
<linearGradient id="paint0_linear_1598_805" x1="26" y1="21.5" x2="26" y2="50.5" gradientUnits="userSpaceOnUse">
<stop stop-color="white" stop-opacity="0.3"/>
<stop offset="1" stop-color="#79F67E" stop-opacity="0"/>
</linearGradient>
<clipPath id="clip0_1598_805">
<rect width="16" height="16" fill="white" transform="translate(35 0.5)"/>
</clipPath>
</defs>
</svg>
