<svg width="183" height="93" viewBox="0 0 183 93" fill="none" xmlns="http://www.w3.org/2000/svg">
<g style="mix-blend-mode:overlay">
<path d="M44.768 0.479996C52.5333 0.479996 59.4453 1.93066 65.504 4.83199C71.648 7.648 76.64 11.7013 80.48 16.992C84.32 22.1973 86.9227 28.256 88.288 35.168H61.792C60.3413 31.584 58.08 28.8107 55.008 26.848C51.936 24.8 48.3947 23.776 44.384 23.776C38.8373 23.776 34.3573 25.8667 30.944 30.048C27.5307 34.144 25.824 39.648 25.824 46.56C25.824 53.472 27.5307 59.0187 30.944 63.2C34.3573 67.3813 38.8373 69.472 44.384 69.472C48.3947 69.472 51.936 68.448 55.008 66.4C58.08 64.352 60.3413 61.536 61.792 57.952H88.288C86.24 68.5333 81.376 76.9813 73.696 83.296C66.1013 89.5253 56.4587 92.64 44.768 92.64C35.808 92.64 27.9573 90.72 21.216 86.88C14.56 82.9547 9.39733 77.4933 5.728 70.496C2.144 63.4987 0.352 55.52 0.352 46.56C0.352 37.6 2.144 29.6213 5.728 22.624C9.39733 15.6267 14.56 10.208 21.216 6.368C27.9573 2.44266 35.808 0.479996 44.768 0.479996ZM182.737 46.432C182.737 55.2213 180.817 63.072 176.977 69.984C173.137 76.8107 167.676 82.1867 160.593 86.112C153.51 90.0373 145.19 92 135.633 92H99.537V1.376H135.633C145.19 1.376 153.51 3.296 160.593 7.13599C167.761 10.8907 173.222 16.1813 176.977 23.008C180.817 29.8347 182.737 37.6427 182.737 46.432ZM133.329 69.472C140.753 69.472 146.598 67.4667 150.865 63.456C155.132 59.4453 157.265 53.7707 157.265 46.432C157.265 39.1787 155.132 33.5467 150.865 29.536C146.598 25.44 140.753 23.392 133.329 23.392H124.753V69.472H133.329Z" fill="white" fill-opacity="0.4"/>
</g>
</svg>

