<svg width="48" height="58" viewBox="0 0 48 58" fill="none" xmlns="http://www.w3.org/2000/svg">
<path d="M46.1567 53.375H1.15625L8.65625 35.563H38.6567L46.1567 53.375Z" fill="#CACADB"/>
<path d="M11.1817 36.9691H36.1312C36.9312 36.967 37.7191 37.1647 38.4233 37.5443C39.1276 37.9239 39.7259 38.4733 40.1639 39.1428L38.6566 35.5628H8.65621L7.1488 39.1428C7.5869 38.4733 8.18522 37.9239 8.88949 37.5443C9.59375 37.1647 10.3817 36.967 11.1817 36.9691Z" fill="#F0F0FF"/>
<path d="M41.3187 41.8848C41.4162 42.9251 41.2955 43.9743 40.9643 44.9653C40.6331 45.9563 40.0987 46.8673 39.3953 47.6399C38.6919 48.4126 37.835 49.0299 36.8794 49.4525C35.9237 49.875 34.8904 50.0934 33.8456 50.0937H13.4674C12.4225 50.0934 11.3892 49.8749 10.4336 49.4524C9.47801 49.0298 8.62111 48.4125 7.91773 47.6399C7.21435 46.8672 6.67998 45.9563 6.34879 44.9653C6.0176 43.9743 5.89688 42.9251 5.99436 41.8848L1.15625 53.375H46.1567L41.3187 41.8848Z" fill="#ADB3BC"/>
<path d="M9.89375 39.1608L4.90625 53.375H42.4066L37.4191 39.1607C37.2904 38.7941 37.0511 38.4765 36.7342 38.2519C36.4172 38.0272 36.0383 37.9065 35.6498 37.9065H11.6631C11.2746 37.9065 10.8957 38.0272 10.5787 38.2519C10.2617 38.4765 10.0224 38.7941 9.89375 39.1608Z" fill="#F0F0FF"/>
<path d="M40.0831 46.7531C39.4034 47.7849 38.477 48.6308 37.3879 49.2142C36.2987 49.7975 35.0811 50.0999 33.8456 50.0937H13.4674C12.2318 50.0999 11.0142 49.7975 9.92506 49.2142C8.83587 48.6308 7.90947 47.7848 7.22984 46.753L4.90625 53.375H42.4066L40.0831 46.7531Z" fill="#CACADB"/>
<path d="M29.2815 53.375H18.0312L19.4789 49.0322C19.6033 48.6588 19.8421 48.334 20.1614 48.1039C20.4807 47.8738 20.8643 47.75 21.2579 47.75H26.0551C26.4486 47.75 26.8322 47.8738 27.1514 48.1039C27.4706 48.334 27.7094 48.6587 27.8338 49.0321L29.2815 53.375Z" fill="#F0F0FF"/>
<path d="M27.8338 49.0322C27.7475 48.7754 27.6065 48.5405 27.4204 48.3436C27.2344 48.1468 27.0078 47.9927 26.7563 47.8921C26.7669 47.9244 26.7804 47.9545 26.7895 47.9879L27.5523 50.7847C27.5902 50.9238 27.5956 51.0697 27.5679 51.2112C27.5402 51.3526 27.4803 51.4858 27.3928 51.6004C27.3053 51.7149 27.1926 51.8077 27.0634 51.8716C26.9342 51.9355 26.792 51.9687 26.6478 51.9687H20.6651C20.521 51.9687 20.3788 51.9355 20.2495 51.8716C20.1203 51.8077 20.0076 51.7149 19.9201 51.6003C19.8326 51.4857 19.7727 51.3526 19.745 51.2111C19.7174 51.0696 19.7227 50.9237 19.7607 50.7846L20.5234 47.9878C20.5325 47.9544 20.546 47.9243 20.5567 47.892C20.3052 47.9926 20.0786 48.1467 19.8925 48.3435C19.7065 48.5404 19.5654 48.7753 19.4791 49.0321L18.0312 53.375H29.2812L27.8338 49.0322Z" fill="#CACADB"/>
<path d="M1.15625 53.375H46.1567V55.25C46.1567 55.7473 45.9591 56.2242 45.6075 56.5758C45.2559 56.9275 44.779 57.125 44.2817 57.125H3.03125C2.53397 57.125 2.05706 56.9275 1.70543 56.5758C1.35379 56.2242 1.15625 55.7473 1.15625 55.25V53.375Z" fill="#ADB3BC"/>
<path d="M44.2817 53.375V53.8438C44.2817 54.341 44.0841 54.8179 43.7325 55.1696C43.3809 55.5212 42.904 55.7188 42.4067 55.7188H4.90625C4.40897 55.7188 3.93206 55.5212 3.58043 55.1696C3.22879 54.8179 3.03125 54.341 3.03125 53.8438V53.375H1.15625V55.25C1.15625 55.7473 1.35379 56.2242 1.70543 56.5758C2.05706 56.9275 2.53397 57.125 3.03125 57.125H44.2817C44.779 57.125 45.2559 56.9275 45.6075 56.5758C45.9591 56.2242 46.1567 55.7473 46.1567 55.25V53.375H44.2817Z" fill="#8A8E93"/>
<path d="M10.5312 15.8757H36.7816C37.2789 15.8757 37.7558 16.0732 38.1074 16.4248C38.4591 16.7765 38.6566 17.2534 38.6566 17.7507V35.5628H8.65625V17.7507C8.65625 17.2534 8.85379 16.7765 9.20543 16.4248C9.55706 16.0732 10.034 15.8757 10.5312 15.8757Z" fill="#7EAADA"/>
<path d="M23.0328 15.8755L15.1156 35.563H12.0875L20.0047 15.8755H23.0328Z" fill="#8DC1F3"/>
<path d="M28.6583 15.8755L20.7406 35.563H17.7125L25.6302 15.8755H28.6583Z" fill="#8DC1F3"/>
<path d="M34.2833 15.8755L26.3661 35.563H23.3375L31.2552 15.8755H34.2833Z" fill="#8DC1F3"/>
<path d="M36.7816 16.8132H35.7418C35.6753 16.8951 35.6083 16.9767 35.5365 17.0548C35.3994 17.1999 35.312 17.3848 35.2867 17.5828C35.2615 17.7809 35.2997 17.9818 35.3959 18.1567L37.1188 21.23C37.3581 21.6577 37.4817 22.1405 37.4772 22.6306C37.4728 23.1207 37.3405 23.6012 37.0934 24.0245C36.8463 24.4478 36.4931 24.7992 36.0685 25.0441C35.6439 25.289 35.1628 25.4188 34.6727 25.4207C34.5348 25.4206 34.3971 25.4106 34.2607 25.3909C31.8774 25.0411 29.4457 25.2452 27.1541 25.9873L26.1978 26.2979C26.0659 26.3407 25.9452 26.4123 25.8443 26.5074C25.7434 26.6026 25.6648 26.7189 25.6143 26.8481C25.5638 26.9773 25.5426 27.116 25.5522 27.2544C25.5618 27.3927 25.6019 27.5272 25.6698 27.6482L27.5471 30.995C27.8125 31.4484 27.9135 31.9794 27.8331 32.4985C27.7527 33.0176 27.4959 33.4932 27.1058 33.845C26.7013 34.1897 26.1876 34.3795 25.6562 34.3807C25.3315 34.3813 25.0107 34.3102 24.7166 34.1725C24.4226 34.0348 24.1626 33.834 23.9551 33.5842L20.7242 29.7208C20.5946 29.5669 20.4189 29.4585 20.2231 29.4118C20.0273 29.365 19.8217 29.3823 19.6365 29.4612C18.6834 29.8694 17.6204 29.9441 16.6196 29.6731C15.57 29.4018 14.6472 28.7744 14.0087 27.8983C13.9115 27.7629 13.779 27.6567 13.6257 27.5912C13.4724 27.5257 13.3041 27.5034 13.1391 27.5268C12.5791 27.6042 12.0087 27.511 11.5025 27.2593C10.9963 27.0076 10.5777 26.6091 10.3014 26.1159L9.89483 25.3893C9.76573 25.1598 9.66465 24.9156 9.59375 24.662V35.5628H37.7191V17.7506C37.7188 17.5021 37.6199 17.2638 37.4441 17.0881C37.2684 16.9123 37.0301 16.8135 36.7816 16.8132Z" fill="#8DC1F3"/>
<path d="M17.4266 29.816L15.1156 35.5629H12.0875L14.8203 28.7614C15.3504 29.1876 15.9634 29.4989 16.6203 29.6754C16.8841 29.7475 17.154 29.7946 17.4266 29.816Z" fill="#A9D1F7"/>
<path d="M22.3206 31.6301L20.7409 35.5629H17.7125L20.1875 29.4035C20.3972 29.4448 20.586 29.5574 20.7219 29.7223L22.3206 31.6301Z" fill="#A9D1F7"/>
<path d="M30.4909 25.3021L27.8377 31.8974C27.804 31.5805 27.7051 31.2741 27.5471 30.9974L26.1643 28.5318L27.1956 25.9724C28.2666 25.6307 29.3715 25.406 30.4909 25.3021Z" fill="#A9D1F7"/>
<path d="M27.0315 33.9035L26.3659 35.5629H23.3378L24.0784 33.716C24.2834 33.9275 24.529 34.0954 24.8004 34.2098C25.0718 34.3242 25.3635 34.3826 25.6581 34.3816C26.1565 34.3807 26.6402 34.2123 27.0315 33.9035Z" fill="#A9D1F7"/>
<path d="M27.8377 31.8972V31.9019L27.0362 33.9035H27.0315C26.6402 34.2123 26.1565 34.3806 25.6581 34.3816C25.3635 34.3826 25.0718 34.3242 24.8004 34.2098C24.5289 34.0954 24.2834 33.9275 24.0784 33.716L26.1643 28.5316L27.5471 30.9972C27.7051 31.274 27.804 31.5804 27.8377 31.8972Z" fill="#8DC1F3"/>
<path d="M31.4941 17.2772C31.4659 17.1225 31.4331 16.9678 31.3956 16.8131H31.5644C31.5456 16.9678 31.5222 17.1225 31.4941 17.2772Z" fill="#8DC1F3"/>
<path d="M19.8084 40.3324L19.5581 41.7387C19.5388 41.847 19.4819 41.9452 19.3976 42.0158C19.3132 42.0865 19.2066 42.1252 19.0965 42.1252H17.1083C17.0371 42.1252 16.9668 42.109 16.9028 42.0777C16.8388 42.0465 16.7827 42.0011 16.7389 41.9449C16.6951 41.8888 16.6646 41.8234 16.6498 41.7537C16.6351 41.684 16.6364 41.6119 16.6536 41.5428L17.0052 40.1366C17.0306 40.0352 17.0891 39.9451 17.1715 39.8808C17.2538 39.8165 17.3554 39.7815 17.4599 39.7815H19.3469C19.4154 39.7815 19.4831 39.7966 19.5452 39.8255C19.6072 39.8545 19.6622 39.8967 19.7062 39.9493C19.7502 40.0018 19.7821 40.0633 19.7998 40.1295C19.8174 40.1957 19.8204 40.265 19.8084 40.3324Z" fill="#8A8E93"/>
<path d="M14.5792 40.3791L14.177 41.7854C14.149 41.8833 14.0899 41.9694 14.0086 42.0307C13.9272 42.0921 13.8282 42.1252 13.7263 42.1252H11.8263C11.7524 42.1252 11.6796 42.1078 11.6138 42.0743C11.5479 42.0408 11.4909 41.9922 11.4474 41.9325C11.4039 41.8728 11.3752 41.8037 11.3635 41.7307C11.3518 41.6578 11.3575 41.5831 11.3801 41.5128L11.8329 40.1066C11.8633 40.0121 11.9229 39.9298 12.0031 39.8714C12.0833 39.813 12.1799 39.7815 12.2791 39.7815H14.1285C14.2011 39.7815 14.2727 39.7983 14.3376 39.8307C14.4025 39.8631 14.4591 39.9101 14.5028 39.968C14.5465 40.026 14.5761 40.0932 14.5894 40.1646C14.6026 40.2359 14.5991 40.3094 14.5792 40.3791Z" fill="#8A8E93"/>
<path d="M24.8555 42.1252H22.4574C22.3902 42.1252 22.3239 42.1108 22.2628 42.083C22.2018 42.0551 22.1474 42.0144 22.1034 41.9637C22.0594 41.9131 22.0268 41.8535 22.0078 41.7891C21.9888 41.7247 21.9839 41.657 21.9933 41.5906L22.193 40.1843C22.2089 40.0726 22.2645 39.9703 22.3498 39.8963C22.4351 39.8222 22.5442 39.7815 22.6571 39.7815H24.6558C24.7687 39.7815 24.8778 39.8222 24.9631 39.8963C25.0483 39.9703 25.104 40.0726 25.1199 40.1843L25.3196 41.5906C25.329 41.657 25.3241 41.7248 25.3051 41.7891C25.2861 41.8535 25.2535 41.9131 25.2095 41.9638C25.1655 42.0145 25.1111 42.0551 25.05 42.083C24.989 42.1108 24.9226 42.1252 24.8555 42.1252Z" fill="#8A8E93"/>
<path d="M30.2678 42.1252H28.2164C28.1063 42.1252 27.9998 42.0865 27.9154 42.0158C27.831 41.9451 27.7742 41.847 27.7549 41.7387L27.5046 40.3324C27.4926 40.265 27.4955 40.1957 27.5131 40.1295C27.5308 40.0633 27.5628 40.0018 27.6068 39.9492C27.6508 39.8967 27.7057 39.8545 27.7678 39.8255C27.8299 39.7965 27.8976 39.7815 27.9661 39.7815H29.8656C29.9674 39.7815 30.0665 39.8147 30.1478 39.876C30.2291 39.9373 30.2883 40.0235 30.3163 40.1214L30.7185 41.5276C30.7384 41.5974 30.7419 41.6708 30.7286 41.7422C30.7154 41.8135 30.6857 41.8808 30.642 41.9387C30.5983 41.9967 30.5418 42.0437 30.4768 42.076C30.4119 42.1084 30.3403 42.1252 30.2678 42.1252Z" fill="#8A8E93"/>
<path d="M35.4866 42.1252H33.5866C33.4848 42.1252 33.3857 42.0921 33.3044 42.0308C33.2231 41.9694 33.1639 41.8833 33.1359 41.7854L32.7338 40.3791C32.7138 40.3094 32.7103 40.2359 32.7236 40.1646C32.7369 40.0933 32.7665 40.026 32.8102 39.968C32.8539 39.9101 32.9104 39.8631 32.9754 39.8307C33.0403 39.7984 33.1119 39.7815 33.1845 39.7815H35.0338C35.133 39.7815 35.2297 39.813 35.3099 39.8714C35.39 39.9298 35.4496 40.0122 35.48 40.1066L35.9328 41.5129C35.9555 41.5832 35.9612 41.6578 35.9495 41.7308C35.9378 41.8037 35.909 41.8728 35.8655 41.9325C35.822 41.9922 35.765 42.0408 35.6992 42.0743C35.6333 42.1078 35.5605 42.1252 35.4866 42.1252Z" fill="#8A8E93"/>
<path d="M36.6914 45.875H34.6561C34.5541 45.875 34.4549 45.8417 34.3735 45.7803C34.2921 45.7188 34.233 45.6324 34.2052 45.5343L33.8058 44.1281C33.786 44.0583 33.7826 43.985 33.796 43.9137C33.8093 43.8425 33.839 43.7753 33.8827 43.7174C33.9264 43.6596 33.9829 43.6127 34.0478 43.5804C34.1127 43.5481 34.1842 43.5313 34.2567 43.5312H36.2386C36.3378 43.5313 36.4344 43.5627 36.5146 43.6211C36.5947 43.6796 36.6543 43.7619 36.6847 43.8563L37.1375 45.2626C37.1602 45.3329 37.1659 45.4076 37.1542 45.4805C37.1425 45.5534 37.1137 45.6226 37.0702 45.6823C37.0267 45.742 36.9697 45.7905 36.9039 45.824C36.8381 45.8575 36.7652 45.875 36.6914 45.875Z" fill="#8A8E93"/>
<path d="M31.3377 45.875H28.8867C28.7766 45.875 28.6701 45.8363 28.5857 45.7656C28.5013 45.6949 28.4445 45.5968 28.4252 45.4884L28.1749 44.0822C28.1628 44.0147 28.1658 43.9455 28.1834 43.8793C28.2011 43.8131 28.233 43.7515 28.277 43.699C28.321 43.6465 28.376 43.6043 28.4381 43.5753C28.5002 43.5463 28.5679 43.5313 28.6364 43.5313H30.9383C31.0403 43.5313 31.1395 43.5646 31.2209 43.6261C31.3023 43.6875 31.3613 43.7739 31.3892 43.872L31.7886 45.2782C31.8084 45.348 31.8118 45.4213 31.7984 45.4926C31.7851 45.5638 31.7554 45.631 31.7117 45.6888C31.668 45.7467 31.6115 45.7936 31.5466 45.8259C31.4817 45.8582 31.4102 45.875 31.3377 45.875Z" fill="#8A8E93"/>
<path d="M25.3935 45.875H21.9194C21.8522 45.875 21.7858 45.8606 21.7246 45.8327C21.6635 45.8047 21.6091 45.764 21.5651 45.7132C21.521 45.6624 21.4885 45.6028 21.4695 45.5383C21.4506 45.4738 21.4458 45.406 21.4553 45.3395L21.6578 43.9332C21.6739 43.8216 21.7296 43.7195 21.8149 43.6457C21.9001 43.5719 22.0091 43.5313 22.1219 43.5313H25.191C25.3038 43.5313 25.4127 43.5719 25.498 43.6457C25.5832 43.7195 25.639 43.8216 25.6551 43.9332L25.8576 45.3395C25.8671 45.406 25.8623 45.4738 25.8434 45.5383C25.8244 45.6028 25.7919 45.6624 25.7479 45.7132C25.7038 45.764 25.6494 45.8047 25.5883 45.8327C25.5271 45.8606 25.4607 45.875 25.3935 45.875Z" fill="#8A8E93"/>
<path d="M19.1381 44.0824L18.8878 45.4886C18.8685 45.597 18.8116 45.6951 18.7272 45.7658C18.6429 45.8365 18.5363 45.8752 18.4262 45.8752H16.1708C16.0996 45.8752 16.0293 45.8589 15.9653 45.8277C15.9013 45.7965 15.8452 45.751 15.8014 45.6949C15.7576 45.6387 15.7271 45.5734 15.7123 45.5037C15.6976 45.434 15.6989 45.3619 15.7161 45.2928L16.0677 43.8865C16.0931 43.7851 16.1516 43.6951 16.234 43.6308C16.3163 43.5664 16.4179 43.5315 16.5224 43.5315H18.6766C18.7451 43.5315 18.8128 43.5465 18.8748 43.5755C18.9369 43.6045 18.9919 43.6467 19.0359 43.6992C19.0799 43.7517 19.1118 43.8133 19.1295 43.8795C19.1471 43.9456 19.1501 44.0149 19.1381 44.0824Z" fill="#8A8E93"/>
<path d="M13.5072 44.1283L13.1078 45.5345C13.0799 45.6327 13.0208 45.719 12.9394 45.7805C12.8581 45.842 12.7588 45.8752 12.6569 45.8752H10.6216C10.5477 45.8752 10.4749 45.8578 10.4091 45.8243C10.3432 45.7908 10.2862 45.7422 10.2427 45.6825C10.1992 45.6228 10.1705 45.5537 10.1588 45.4807C10.147 45.4078 10.1528 45.3331 10.1754 45.2628L10.6282 43.8566C10.6586 43.7621 10.7182 43.6798 10.7984 43.6214C10.8786 43.563 10.9752 43.5315 11.0744 43.5315H13.0562C13.1287 43.5315 13.2002 43.5483 13.2651 43.5806C13.33 43.6129 13.3866 43.6598 13.4303 43.7177C13.474 43.7755 13.5036 43.8427 13.517 43.9139C13.5303 43.9852 13.527 44.0586 13.5072 44.1283Z" fill="#8A8E93"/>
<path d="M46.5888 53.1934L46.5882 53.1919L39.1254 35.4681V17.7506C39.1246 17.1292 38.8775 16.5335 38.4381 16.0941C37.9987 15.6548 37.403 15.4076 36.7816 15.4069H10.5312C9.90987 15.4076 9.31415 15.6547 8.87476 16.0941C8.43538 16.5335 8.18822 17.1292 8.1875 17.7506V35.4681L0.724719 53.1919L0.724156 53.1932C0.700946 53.251 0.688523 53.3127 0.6875 53.375V55.25C0.68822 55.8714 0.935381 56.4671 1.37476 56.9065C1.81415 57.3459 2.40987 57.593 3.03125 57.5938H44.2817C44.9031 57.593 45.4988 57.3459 45.9382 56.9065C46.3775 56.4671 46.6247 55.8714 46.6254 55.25V53.375C46.6244 53.3127 46.612 53.2512 46.5888 53.1934ZM9.125 17.7506C9.12541 17.3778 9.2737 17.0203 9.53733 16.7567C9.80097 16.4931 10.1584 16.3448 10.5312 16.3444H36.7812C37.1541 16.3448 37.5115 16.4931 37.7752 16.7567C38.0388 17.0203 38.1871 17.3778 38.1875 17.7506V35.0941H9.125V17.7506ZM8.9675 36.0316H38.3453L45.4508 52.9066H42.7391L37.8615 39.0056C37.7004 38.5476 37.4011 38.1508 37.005 37.87C36.6089 37.5892 36.1355 37.4382 35.65 37.4378H11.663C11.1774 37.4382 10.704 37.5892 10.3079 37.87C9.91181 38.1508 9.61259 38.5476 9.45148 39.0056L4.57409 52.9063H1.86214L8.9675 36.0316ZM29.6192 52.9063L28.2786 48.8839C28.1234 48.417 27.8251 48.0108 27.426 47.7231C27.0268 47.4354 26.5472 47.2808 26.0552 47.2813H21.2578C20.7657 47.2808 20.2861 47.4354 19.887 47.7231C19.4879 48.0108 19.1895 48.417 19.0344 48.8839L17.6937 52.9063H5.56719L10.3359 39.316C10.4327 39.0412 10.6123 38.8032 10.8499 38.6348C11.0876 38.4663 11.3716 38.3756 11.663 38.3753H35.65C35.9413 38.3756 36.2253 38.4663 36.463 38.6348C36.7006 38.8032 36.8802 39.0412 36.977 39.316L41.7456 52.9063H29.6192ZM28.631 52.9063H18.6819L19.9234 49.1805C20.0166 48.9004 20.1956 48.6567 20.4351 48.484C20.6747 48.3114 20.9625 48.2186 21.2578 48.2188H26.0552C26.3504 48.2186 26.6382 48.3114 26.8778 48.484C27.1173 48.6566 27.2964 48.9003 27.3896 49.1805L28.631 52.9063ZM44.2817 56.6563H3.03125C2.65841 56.6558 2.30097 56.5076 2.03733 56.2439C1.7737 55.9803 1.62541 55.6228 1.625 55.25V53.8438H45.6879V55.25C45.6875 55.6228 45.5392 55.9803 45.2756 56.2439C45.012 56.5076 44.6545 56.6558 44.2817 56.6563ZM19.347 39.3128H17.4601C17.251 39.3126 17.0477 39.3824 16.8829 39.5112C16.7181 39.6399 16.6011 39.8202 16.5507 40.0232L16.1988 41.4295C16.1643 41.5677 16.1619 41.712 16.1915 41.8513C16.2211 41.9906 16.2821 42.1214 16.3699 42.2336C16.4576 42.3459 16.5697 42.4366 16.6977 42.4991C16.8258 42.5615 16.9663 42.594 17.1088 42.594H19.0969C19.317 42.5942 19.5302 42.5167 19.699 42.3754C19.8678 42.234 19.9813 42.0376 20.0197 41.8208L20.2701 40.4146V40.4141C20.2941 40.2792 20.2882 40.1407 20.2529 40.0083C20.2176 39.876 20.1537 39.753 20.0657 39.6479C19.9778 39.5429 19.8678 39.4585 19.7437 39.4005C19.6196 39.3426 19.484 39.3128 19.347 39.3128ZM19.0966 41.6565H17.1081L17.4601 40.2503L19.347 40.2493L19.0966 41.6565ZM14.1285 39.3128H12.2791C12.0806 39.3125 11.8872 39.3754 11.7268 39.4922C11.5663 39.609 11.4471 39.7738 11.3864 39.9628L10.9337 41.369C10.8884 41.5097 10.877 41.6591 10.9004 41.805C10.9238 41.9509 10.9814 42.0892 11.0684 42.2086C11.1554 42.328 11.2695 42.4252 11.4012 42.4922C11.5329 42.5591 11.6786 42.594 11.8264 42.594H13.7261C13.9296 42.5934 14.1274 42.5268 14.2899 42.4044C14.4524 42.2819 14.5708 42.1101 14.6275 41.9147L15.0298 40.5084L15.0303 40.508C15.0701 40.3684 15.0769 40.2215 15.0503 40.0788C15.0237 39.9362 14.9644 39.8016 14.877 39.6858C14.7896 39.5699 14.6765 39.4759 14.5466 39.4112C14.4167 39.3464 14.2736 39.3128 14.1285 39.3128ZM13.7261 41.6565H11.8264L12.2791 40.2503L14.129 40.2493L13.7261 41.6565ZM22.4576 42.594H24.8554C24.9896 42.5941 25.1224 42.5654 25.2446 42.5097C25.3668 42.454 25.4756 42.3727 25.5636 42.2713C25.6517 42.1699 25.7169 42.0507 25.7549 41.9219C25.7928 41.7931 25.8027 41.6577 25.7837 41.5247L25.5841 40.118C25.5514 39.895 25.4397 39.6911 25.2694 39.5433C25.0991 39.3956 24.8815 39.3138 24.656 39.3128H22.6572C22.4316 39.3138 22.214 39.3957 22.0437 39.5435C21.8733 39.6913 21.7617 39.8953 21.729 40.1185L21.5294 41.5243C21.5104 41.6572 21.5202 41.7927 21.5582 41.9215C21.5961 42.0504 21.6613 42.1696 21.7493 42.271C21.8373 42.3725 21.9461 42.4538 22.0683 42.5095C22.1905 42.5653 22.3233 42.5941 22.4576 42.594ZM22.6572 40.2503H24.6558L24.8563 41.6565H22.4576L22.6572 40.2503ZM30.2675 42.594C30.4127 42.594 30.5558 42.5603 30.6857 42.4955C30.8156 42.4307 30.9287 42.3367 31.0161 42.2208C31.1035 42.1049 31.1628 41.9703 31.1893 41.8276C31.2158 41.6849 31.2088 41.538 31.1689 41.3984L30.767 39.9931C30.7106 39.7975 30.5922 39.6254 30.4297 39.5027C30.2672 39.3801 30.0693 39.3135 29.8656 39.3129H27.9659C27.8289 39.3129 27.6935 39.3429 27.5694 39.4009C27.4452 39.4589 27.3353 39.5434 27.2473 39.6484C27.1593 39.7535 27.0954 39.8765 27.0601 40.0089C27.0248 40.1413 27.019 40.2798 27.043 40.4147L27.2934 41.8205C27.3318 42.0373 27.4453 42.2337 27.6141 42.3752C27.7829 42.5166 27.9961 42.594 28.2163 42.5939L30.2675 42.594ZM29.8656 40.2503L30.2688 41.6565L28.2163 41.6563L27.9659 40.2505L29.8656 40.2503ZM35.4866 42.594C35.6343 42.5941 35.78 42.5592 35.9117 42.4922C36.0435 42.4252 36.1575 42.3281 36.2445 42.2087C36.3316 42.0892 36.3891 41.9509 36.4125 41.805C36.4359 41.6591 36.4245 41.5097 36.3792 41.3691L35.926 39.962C35.8653 39.7732 35.7462 39.6086 35.5858 39.4919C35.4254 39.3752 35.2322 39.3125 35.0338 39.3128H33.1844C33.0393 39.3128 32.8961 39.3465 32.7662 39.4113C32.6362 39.476 32.5231 39.5701 32.4357 39.686C32.3484 39.8019 32.2891 39.9366 32.2626 40.0793C32.2361 40.222 32.2431 40.369 32.2831 40.5085L32.6855 41.9152C32.7422 42.1105 32.8607 42.2822 33.0232 42.4046C33.1857 42.527 33.3834 42.5934 33.5868 42.594H35.4866ZM33.1844 40.2503H35.0338L35.4879 41.6565H33.5864L33.1844 40.2503ZM37.5841 45.119L37.1309 43.7132C37.0705 43.5241 36.9515 43.3591 36.7911 43.2421C36.6307 43.1252 36.4372 43.0623 36.2387 43.0627H34.2566C34.1116 43.0628 33.9686 43.0965 33.8388 43.1611C33.7091 43.2258 33.596 43.3196 33.5087 43.4353C33.4213 43.551 33.3619 43.6853 33.3352 43.8278C33.3085 43.9703 33.3151 44.1171 33.3547 44.2565L33.7543 45.6628C33.8107 45.8586 33.9291 46.0309 34.0917 46.1537C34.2543 46.2765 34.4524 46.3432 34.6562 46.3438H36.6914C36.8391 46.3437 36.9847 46.3087 37.1164 46.2417C37.2481 46.1747 37.362 46.0775 37.449 45.9581C37.536 45.8387 37.5936 45.7005 37.6171 45.5546C37.6406 45.4088 37.6292 45.2596 37.5841 45.119ZM34.6562 45.4063L34.2566 44H36.2382L36.6929 45.4063H34.6562ZM31.84 43.7437C31.7837 43.5478 31.6653 43.3755 31.5027 43.2527C31.3401 43.1299 31.142 43.0631 30.9382 43.0625H28.6366C28.4996 43.0624 28.3642 43.0924 28.24 43.1503C28.1158 43.2082 28.0058 43.2926 27.9178 43.3977C27.8298 43.5027 27.7659 43.6258 27.7306 43.7582C27.6954 43.8907 27.6896 44.0292 27.7137 44.1641L27.9637 45.5704C28.0021 45.7873 28.1157 45.9837 28.2846 46.1252C28.4535 46.2666 28.6668 46.344 28.8871 46.3438H31.338C31.483 46.3437 31.6259 46.31 31.7557 46.2454C31.8855 46.1807 31.9985 46.0869 32.0859 45.9712C32.1732 45.8555 32.2326 45.7211 32.2593 45.5787C32.286 45.4362 32.2794 45.2894 32.2398 45.1499L31.84 43.7437ZM28.8865 45.4063L28.6365 44H30.9381L31.3391 45.4063H28.8865ZM26.1188 43.8659C26.0855 43.6432 25.9736 43.4398 25.8034 43.2925C25.6332 43.1451 25.4158 43.0636 25.1907 43.0625H22.122C21.8969 43.0638 21.6796 43.1454 21.5093 43.2929C21.3391 43.4403 21.2273 43.6437 21.1939 43.8664L20.9916 45.2726C20.9725 45.4056 20.9822 45.5412 21.0201 45.6701C21.058 45.799 21.1231 45.9183 21.211 46.0198C21.299 46.1214 21.4077 46.2029 21.5299 46.2588C21.6521 46.3147 21.7849 46.3436 21.9193 46.3438H25.3937C25.5281 46.3437 25.6609 46.3147 25.7832 46.2589C25.9054 46.203 26.0142 46.1215 26.1022 46.02C26.1902 45.9184 26.2554 45.7991 26.2933 45.6702C26.3312 45.5412 26.3409 45.4056 26.3218 45.2726L26.1188 43.8659ZM21.9197 45.4063L22.122 44H25.1909L25.3946 45.4063H21.9197ZM18.6764 43.0625H16.5226C16.3135 43.0623 16.1102 43.1321 15.9454 43.2609C15.7806 43.3896 15.6636 43.5699 15.6132 43.7729L15.2612 45.1792C15.2268 45.3174 15.2243 45.4616 15.254 45.601C15.2836 45.7403 15.3446 45.871 15.4323 45.9833C15.52 46.0955 15.6321 46.1863 15.7601 46.2487C15.8881 46.3112 16.0286 46.3437 16.1711 46.3438H18.426C18.6463 46.344 18.8597 46.2666 19.0286 46.1252C19.1975 45.9837 19.3111 45.7872 19.3495 45.5703L19.5994 44.1645C19.6235 44.0296 19.6178 43.8911 19.5825 43.7587C19.5472 43.6262 19.4833 43.5032 19.3953 43.3981C19.3073 43.2931 19.1974 43.2086 19.0732 43.1507C18.949 43.0928 18.8136 43.0629 18.6765 43.063L18.6764 43.0625ZM18.6764 43.9995L18.426 45.4063H16.1706L16.5226 44L18.6764 43.9986V43.9995ZM13.0564 43.0627H11.0743C10.8758 43.0623 10.6824 43.1251 10.522 43.242C10.3616 43.3588 10.2425 43.5237 10.1821 43.7128L9.72889 45.1194C9.6838 45.26 9.67254 45.4093 9.69605 45.5551C9.71955 45.7009 9.77714 45.8391 9.86414 45.9584C9.95113 46.0777 10.0651 46.1748 10.1967 46.2418C10.3283 46.3087 10.4739 46.3437 10.6215 46.3438H12.6568C12.8605 46.3431 13.0586 46.2764 13.2213 46.1536C13.3839 46.0307 13.5022 45.8585 13.5586 45.6626L13.9582 44.2564C13.9977 44.1169 14.0043 43.9697 13.9776 43.8273C13.9509 43.6849 13.8915 43.5506 13.8041 43.4349C13.7167 43.3193 13.6037 43.2255 13.474 43.1609C13.3443 43.0963 13.2013 43.0628 13.0564 43.0627ZM12.6568 45.4065H10.6215L11.0743 44.0002L13.0564 43.9993L12.6568 45.4065Z" fill="#603913"/>
<path d="M10.7942 21.8097L11.6117 21.3512L13.9039 25.4387L13.0864 25.8972C12.6527 26.1404 12.1403 26.2013 11.6617 26.0666C11.1831 25.932 10.7777 25.6127 10.5345 25.1791L10.0761 24.3616C9.83288 23.9279 9.77193 23.4155 9.90661 22.9369C10.0413 22.4583 10.3606 22.0529 10.7942 21.8097Z" fill="#F0F0FF"/>
<path d="M9.98486 24.1555C10.0115 24.2294 10.0428 24.3016 10.0786 24.3715L10.537 25.1893C10.6573 25.4041 10.8189 25.5931 11.0123 25.7455C11.2057 25.8979 11.4272 26.0107 11.6643 26.0774C11.9013 26.1442 12.1491 26.1636 12.3936 26.1346C12.6381 26.1056 12.8746 26.0287 13.0893 25.9083L13.9071 25.4499L13.2198 24.2234L12.402 24.6818C12.0042 24.9037 11.539 24.9727 11.0939 24.8758C10.6488 24.7789 10.2544 24.5227 9.98486 24.1555Z" fill="#DCDCF9"/>
<path d="M31.1628 17.3112C33.4928 17.3112 35.3816 15.4225 35.3816 13.0925C35.3816 10.7625 33.4928 8.87375 31.1628 8.87375C28.8329 8.87375 26.9441 10.7625 26.9441 13.0925C26.9441 15.4225 28.8329 17.3112 31.1628 17.3112Z" fill="#EA5A6B"/>
<path d="M31.73 8.91692C32.4312 9.50359 32.9225 10.3025 33.1297 11.193C33.3369 12.0834 33.2487 13.0172 32.8785 13.8531C32.5084 14.6891 31.8762 15.3819 31.0776 15.827C30.279 16.2721 29.3572 16.4452 28.4515 16.3203C28.952 16.7417 29.5436 17.0408 30.1796 17.194C30.8157 17.3472 31.4786 17.3503 32.116 17.203C32.7535 17.0557 33.3479 16.7622 33.8522 16.3455C34.3566 15.9288 34.757 15.4005 35.0219 14.8023C35.2868 14.2041 35.4089 13.5525 35.3784 12.899C35.348 12.2455 35.1659 11.608 34.8465 11.0371C34.5271 10.4661 34.0793 9.97729 33.5384 9.60931C32.9974 9.24134 32.3783 9.00429 31.73 8.91692Z" fill="#C8556B"/>
<path d="M12.1806 15.6601L17.4944 12.6803L24.371 24.9428L19.0572 27.9226C18.1899 28.409 17.165 28.5309 16.2079 28.2615C15.2507 27.9922 14.4398 27.3537 13.9535 26.4864L10.7444 20.7639C10.2581 19.8966 10.1362 18.8717 10.4055 17.9146C10.6748 16.9574 11.3134 16.1465 12.1806 15.6601Z" fill="#EA5A6B"/>
<path d="M13.0402 24.8613L13.9568 26.4969C14.1976 26.9265 14.5206 27.3044 14.9075 27.6092C15.2943 27.9139 15.7374 28.1395 16.2114 28.273C16.6854 28.4065 17.1811 28.4454 17.6701 28.3873C18.1591 28.3293 18.6319 28.1755 19.0615 27.9347L24.3774 24.9555L23.4607 23.3199L18.145 26.2991C17.7154 26.5399 17.2426 26.6937 16.7536 26.7518C16.2645 26.8099 15.7688 26.771 15.2948 26.6375C14.8208 26.504 14.3777 26.2784 13.9908 25.9736C13.604 25.6689 13.2809 25.2909 13.0402 24.8613Z" fill="#C8556B"/>
<path d="M33.8116 23.9922C31.2858 23.6238 28.709 23.8415 26.2808 24.6285L23.1508 25.643L16.2755 13.3758L18.7746 11.2355C20.7133 9.57519 22.2439 7.49095 23.2479 5.14419C23.3856 4.82226 23.6107 4.54533 23.8978 4.34477C24.1848 4.1442 24.5222 4.02801 24.8719 4.00936C25.2215 3.99071 25.5694 4.07034 25.8761 4.23923C26.1829 4.40813 26.4362 4.65954 26.6074 4.96498L35.7179 21.2202C35.8891 21.5257 35.9713 21.873 35.9553 22.2228C35.9392 22.5725 35.8256 22.9108 35.6272 23.1993C35.4288 23.4878 35.1535 23.715 34.8327 23.8552C34.5118 23.9953 34.1581 24.0428 33.8116 23.9922Z" fill="#F0F0FF"/>
<path d="M23.6749 4.52699L26.3454 9.29174C27.7453 11.7896 28.0986 14.7404 27.3279 17.4982C26.5572 20.2559 24.7254 22.5961 22.2334 24.0064L23.1506 25.643L26.2807 24.6285C28.7089 23.8415 31.2856 23.6238 33.8114 23.9923C34.1579 24.0428 34.5116 23.9953 34.8325 23.8552C35.1534 23.715 35.4286 23.4878 35.627 23.1993C35.8255 22.9108 35.9391 22.5725 35.9551 22.2227C35.9712 21.8729 35.8889 21.5257 35.7177 21.2202L26.6073 4.96513C26.4672 4.71565 26.2719 4.50151 26.0364 4.33908C25.8009 4.17664 25.5314 4.07022 25.2484 4.02794C24.9654 3.98566 24.6766 4.00864 24.4038 4.09514C24.1311 4.18164 23.8818 4.32935 23.6749 4.52699Z" fill="#DCDCF9"/>
<path d="M25.7002 32.8116C25.4396 32.9576 25.1361 33.008 24.8423 32.9539C24.5485 32.8999 24.2828 32.7449 24.0913 32.5156L19.8794 27.4766L23.1507 25.6432L26.1913 31.0684C26.3573 31.3647 26.3988 31.7148 26.3067 32.0417C26.2146 32.3686 25.9965 32.6455 25.7002 32.8116Z" fill="#F0F0FF"/>
<path d="M22.5181 28.8823C22.4297 28.7766 22.3658 28.6527 22.3308 28.5195C22.2957 28.3863 22.2905 28.247 22.3154 28.1115C22.3403 27.9761 22.3948 27.8477 22.4749 27.7357C22.555 27.6237 22.6589 27.5307 22.779 27.4633L23.8384 26.8697L23.1508 25.643L19.8794 27.4766L24.0913 32.5156C24.2828 32.7448 24.5485 32.8999 24.8423 32.9539C25.1361 33.008 25.4396 32.9576 25.7002 32.8116C25.7236 32.7985 25.7424 32.7808 25.7645 32.7665L22.5181 28.8823Z" fill="#DCDCF9"/>
<path d="M36.1266 20.9911L33.8493 16.9278C34.8052 16.2656 35.4791 15.27 35.7386 14.1365C35.9981 13.0029 35.8244 11.8133 35.2518 10.8012C34.6788 9.793 33.7542 9.03139 32.6549 8.66201C31.5557 8.29264 30.3588 8.34142 29.2933 8.79903L27.0161 4.73591C26.802 4.35417 26.4854 4.04 26.102 3.82895C25.7186 3.6179 25.2838 3.51842 24.8467 3.54176C24.4097 3.56511 23.988 3.71035 23.6292 3.96103C23.2705 4.21172 22.9891 4.55784 22.817 4.9602C21.8383 7.23922 20.3512 9.26414 18.4695 10.88L16.0055 12.9901L11.9569 15.2593C10.9819 15.8073 10.2642 16.7197 9.96101 17.7962C9.65785 18.8728 9.79403 20.0256 10.3397 21.0019L10.5688 21.4105C10.0272 21.7151 9.62848 22.222 9.46011 22.8201C9.29175 23.4183 9.36746 24.0587 9.67064 24.6011L10.1288 25.4187C10.4329 25.9607 10.9398 26.3598 11.538 26.5283C12.1362 26.6968 12.7768 26.621 13.3191 26.3174L13.5484 26.7265C13.8181 27.2107 14.1811 27.6366 14.6165 27.9796C15.0519 28.3225 15.551 28.5758 16.0849 28.7246C16.4591 28.8302 16.846 28.8839 17.2348 28.8843C17.9551 28.8836 18.6632 28.6974 19.2908 28.3438L19.7689 28.0757L23.7315 32.8165C23.9932 33.1296 24.3561 33.3414 24.7575 33.4152C25.1588 33.489 25.5733 33.4202 25.9293 33.2207C26.3336 32.9934 26.6318 32.615 26.7574 32.1685C26.8831 31.722 26.8265 31.2438 26.6001 30.839L23.8391 25.9124L26.4256 25.0743C28.786 24.3131 31.2892 24.1016 33.7438 24.4558C34.1769 24.5191 34.619 24.4598 35.0202 24.2847C35.4213 24.1095 35.7653 23.8256 36.0133 23.4649C36.2613 23.1043 36.4034 22.6814 36.4234 22.2442C36.4434 21.8069 36.3406 21.3729 36.1266 20.9911ZM34.4344 11.2598C34.8848 12.0556 35.0273 12.9891 34.8348 13.883C34.6424 14.7769 34.1284 15.569 33.3904 16.1089L29.7529 9.61883C30.5998 9.28056 31.5405 9.26038 32.401 9.56201C33.2616 9.86365 33.9841 10.4669 34.4344 11.2598ZM11.7916 25.6263C11.6136 25.5766 11.4473 25.4922 11.3021 25.3778C11.157 25.2634 11.036 25.1213 10.9462 24.9598L10.4879 24.1423C10.306 23.8169 10.2606 23.4326 10.3616 23.0737C10.4626 22.7149 10.7018 22.4107 11.0267 22.2279L12.8604 25.4998C12.6994 25.5903 12.5221 25.6481 12.3387 25.6698C12.1552 25.6916 11.9693 25.6768 11.7916 25.6263ZM18.8323 27.526C18.0731 27.9513 17.176 28.0577 16.3384 27.8217C15.5008 27.5857 14.7912 27.0267 14.3657 26.2677L11.1572 20.543C10.7328 19.7836 10.627 18.8869 10.8629 18.0495C11.0989 17.2122 11.6573 16.5027 12.4157 16.0766L16.0959 14.0141L22.5126 25.4631L18.8323 27.526ZM25.4711 32.4031C25.3058 32.4955 25.1135 32.5273 24.9273 32.4929C24.7411 32.4586 24.5727 32.3603 24.4512 32.215L20.6014 27.6095L22.9708 26.2812L25.7824 31.2977C25.8874 31.4856 25.9136 31.7075 25.8552 31.9147C25.7969 32.1219 25.6587 32.2976 25.4711 32.4031ZM35.2413 22.934C35.0949 23.1529 34.8888 23.3253 34.6474 23.4307C34.406 23.5361 34.1395 23.5701 33.8794 23.5286C31.2823 23.1528 28.6336 23.3766 26.1363 24.1828L23.3718 25.0784L16.8724 13.482L19.0793 11.592C21.0699 9.88233 22.6431 7.74002 23.6785 5.32892C23.7817 5.08736 23.9505 4.87953 24.1658 4.72901C24.3811 4.57849 24.6343 4.49128 24.8966 4.47727C25.1589 4.46326 25.4199 4.52301 25.6501 4.64975C25.8802 4.77649 26.0702 4.96515 26.1985 5.19434L35.309 21.4498C35.4405 21.6778 35.504 21.9387 35.492 22.2017C35.48 22.4646 35.393 22.7189 35.2413 22.934Z" fill="#603913"/>
<path d="M5.17657 4.07131C5.58446 3.46085 6.13007 2.95475 6.76943 2.59383C7.40879 2.2329 8.12401 2.02725 8.85743 1.99344C9.59085 1.95963 10.322 2.09861 10.9918 2.39917C11.6617 2.69974 12.2515 3.15349 12.7139 3.72384C13.1762 4.29419 13.498 4.96518 13.6535 5.68274C13.8089 6.40029 13.7936 7.14433 13.6087 7.85488C13.4239 8.56542 13.0747 9.2226 12.5893 9.77343C12.1038 10.3243 11.4958 10.7533 10.8141 11.0261C10.5468 11.9427 10.5649 12.9191 10.8661 13.8253L10.8617 13.8237C10.0015 13.2284 9.36614 12.3615 9.05753 11.362C8.20992 11.3597 7.3788 11.1275 6.65274 10.6902C5.92667 10.2528 5.33286 9.62665 4.93457 8.87844C4.53629 8.13022 4.34844 7.28797 4.39106 6.44142C4.43367 5.59488 4.70515 4.77575 5.17657 4.07131Z" fill="#EA5A6B"/>
<path d="M9.4885 2.75084C8.71259 2.75085 7.94883 2.94346 7.26571 3.3114C6.58259 3.67933 6.00149 4.21109 5.57454 4.85896C5.14758 5.50683 4.88812 6.25055 4.81944 7.02341C4.75076 7.79627 4.875 8.57409 5.18101 9.28709C4.81746 8.7468 4.57053 8.13666 4.45598 7.49559C4.34144 6.85453 4.36179 6.19662 4.51573 5.56386C4.66968 4.9311 4.95385 4.33738 5.3501 3.82059C5.74634 3.3038 6.24597 2.87529 6.8171 2.5624C7.38823 2.24951 8.01831 2.05911 8.66714 2.00336C9.31596 1.94762 9.96929 2.02774 10.5854 2.23861C11.2015 2.44949 11.767 2.78649 12.2455 3.22811C12.7241 3.66973 13.1054 4.20628 13.3651 4.8035C12.9356 4.17082 12.3578 3.65294 11.682 3.29512C11.0063 2.93731 10.2531 2.75043 9.4885 2.75084Z" fill="#ED7381"/>
<path d="M8.08228 10.2508C8.92304 10.2517 9.74854 10.0262 10.4721 9.59806C11.1957 9.16988 11.7906 8.55477 12.1944 7.81734C12.5982 7.0799 12.796 6.24733 12.767 5.40707C12.7381 4.56681 12.4834 3.74985 12.0297 3.04198C12.6628 3.55673 13.1505 4.22792 13.4445 4.9891C13.7384 5.75028 13.8285 6.57504 13.7056 7.38171C13.5828 8.18839 13.2514 8.94899 12.7443 9.5882C12.2371 10.2274 11.5718 10.7231 10.8142 11.0261C10.5468 11.9427 10.5649 12.9191 10.8661 13.8252L10.8617 13.8237C10.0015 13.2284 9.36617 12.3615 9.05756 11.362C8.2728 11.3604 7.50107 11.1612 6.81352 10.7829C6.12596 10.4046 5.54469 9.85935 5.12329 9.19733C5.95827 9.87982 7.00386 10.2521 8.08228 10.2508Z" fill="#C8556B"/>
<path d="M44.6382 1.71252C45.648 2.4272 46.3357 3.51073 46.5526 4.72865C46.7696 5.94657 46.4982 7.20093 45.7974 8.22031C45.454 8.72349 45.0142 9.15344 44.5033 9.48519C43.9924 9.81694 43.4207 10.0439 42.8214 10.1528C42.222 10.2618 41.607 10.2506 41.0121 10.1198C40.4171 9.98912 39.8541 9.7415 39.3556 9.39134C38.5866 8.85166 37.9993 8.09153 37.6712 7.21124C36.7713 6.92808 35.8061 6.92864 34.9066 7.21283L34.9083 7.20852C35.5084 6.36315 36.376 5.74469 37.3708 5.45295C37.388 4.53405 37.6752 3.64051 38.1965 2.88359C38.5398 2.38042 38.9797 1.95047 39.4906 1.61872C40.0014 1.28697 40.5731 1.06003 41.1725 0.951075C41.7718 0.84212 42.3868 0.853326 42.9817 0.984041C43.5767 1.11476 44.1397 1.36237 44.6382 1.71252Z" fill="#8DC1F3"/>
<path d="M43.3711 9.80469C42.3192 9.79282 41.302 9.427 40.4835 8.76622C39.665 8.10544 39.0929 7.18823 38.8596 6.16251C38.6262 5.13679 38.7451 4.06237 39.1972 3.11251C39.6492 2.16266 40.408 1.39276 41.3512 0.926987C40.7184 1.01625 40.1111 1.2363 39.568 1.57312C39.0248 1.90994 38.5578 2.35616 38.1965 2.88336C37.6752 3.64032 37.388 4.53393 37.3708 5.45291C36.376 5.74464 35.5084 6.3631 34.9083 7.20847L34.9066 7.21278C35.8062 6.92859 36.7713 6.92803 37.6712 7.21119C37.9993 8.0915 38.5867 8.85163 39.3557 9.3913C40.0297 9.86573 40.8191 10.1497 41.6409 10.2133C42.4627 10.2769 43.2865 10.1177 44.0254 9.75266C43.8088 9.78557 43.5902 9.80296 43.3711 9.80469Z" fill="#7EAADA"/>
<path d="M44.6382 1.71252C43.6694 1.03042 42.4736 0.751133 41.3029 0.933549C42.4518 1.00543 43.5338 1.49875 44.3415 2.31898C45.1493 3.13921 45.6259 4.22867 45.6802 5.37858C45.7344 6.52848 45.3624 7.65797 44.6355 8.55058C43.9085 9.4432 42.8777 10.0362 41.7407 10.2159C42.5314 10.2602 43.3201 10.0999 44.0308 9.75035C44.7414 9.4008 45.3498 8.87386 45.7973 8.22046C46.4983 7.20106 46.7696 5.94667 46.5527 4.72871C46.3357 3.51076 45.6479 2.4272 44.6382 1.71252Z" fill="#A9D1F7"/>
<path d="M6.72469 7.04755L8.97549 9.43438L11.3621 7.1833C11.6323 6.92721 11.79 6.57439 11.8005 6.20222C11.8109 5.83004 11.6734 5.46892 11.4179 5.19805C11.1625 4.92717 10.81 4.76868 10.4379 4.75733C10.0657 4.74597 9.70428 4.88269 9.4328 5.13749C9.27905 5.28224 9.16041 5.4602 9.08592 5.6578C9.02314 5.45621 8.91517 5.27161 8.77022 5.11808C8.64451 4.97992 8.49253 4.86819 8.32316 4.78941C8.15379 4.71064 7.97042 4.66639 7.78376 4.65927C7.59711 4.65214 7.4109 4.68227 7.23601 4.7479C7.06113 4.81353 6.90107 4.91334 6.76519 5.04151C6.62931 5.16968 6.52032 5.32364 6.44459 5.4944C6.36887 5.66515 6.32792 5.84928 6.32414 6.03604C6.32036 6.2228 6.35383 6.40843 6.42258 6.58211C6.49134 6.75579 6.5941 6.91399 6.72469 7.04755Z" fill="#F0F0FF"/>
<path d="M10.8659 14.2941C10.8003 14.2941 10.7355 14.2803 10.6755 14.2538C10.6474 14.2411 10.6205 14.2261 10.5949 14.209C9.7416 13.6213 9.08757 12.7876 8.71989 11.819C7.81817 11.7575 6.94847 11.46 6.19803 10.9562C5.4476 10.4525 4.84283 9.76031 4.44438 8.94905C4.04593 8.1378 3.86782 7.23603 3.92791 6.33421C3.988 5.43239 4.28419 4.56223 4.78675 3.81102C5.22986 3.14802 5.82073 2.59686 6.51291 2.20088C7.20508 1.8049 7.97969 1.5749 8.7758 1.52897C9.57191 1.48304 10.3678 1.62242 11.101 1.93617C11.8341 2.24991 12.4844 2.72946 13.0008 3.33709C13.5172 3.94473 13.8857 4.66388 14.0771 5.438C14.2685 6.21213 14.2777 7.0201 14.104 7.79839C13.9303 8.57668 13.5784 9.30406 13.076 9.92333C12.5736 10.5426 11.9344 11.0369 11.2086 11.3673C11.0264 12.1316 11.0618 12.9318 11.3107 13.6771C11.3341 13.7476 11.3405 13.8226 11.3292 13.896C11.318 13.9694 11.2894 14.0391 11.246 14.0994C11.2026 14.1596 11.1454 14.2087 11.0793 14.2425C11.0132 14.2764 10.9402 14.294 10.8659 14.2941ZM5.56586 4.33194C5.14161 4.96592 4.89729 5.70312 4.85894 6.46499C4.82058 7.22687 4.98964 7.98488 5.34809 8.65825C5.70654 9.33163 6.24096 9.89515 6.8944 10.2888C7.54784 10.6824 8.29582 10.8914 9.05866 10.8935C9.15844 10.8937 9.25553 10.9258 9.3358 10.9851C9.41607 11.0444 9.47533 11.1277 9.50496 11.223C9.64785 11.6853 9.86897 12.1196 10.1587 12.507C10.1418 11.9623 10.2112 11.4183 10.3642 10.8953C10.384 10.8269 10.4192 10.7639 10.467 10.7112C10.5148 10.6584 10.5741 10.6173 10.6402 10.5909C11.2536 10.3453 11.8007 9.95907 12.2374 9.46329C12.6742 8.96752 12.9883 8.37608 13.1546 7.73664C13.3208 7.09719 13.3345 6.42764 13.1946 5.78193C13.0546 5.13622 12.7649 4.53242 12.3488 4.0192C11.9327 3.50598 11.4019 3.09769 10.7991 2.82724C10.1963 2.55678 9.53834 2.43173 8.87834 2.46216C8.21834 2.49259 7.57472 2.67765 6.99935 3.00243C6.42398 3.3272 5.93296 3.78261 5.56586 4.33194ZM8.97532 9.90284C8.91146 9.90291 8.84826 9.88991 8.78961 9.86464C8.73096 9.83937 8.67811 9.80236 8.6343 9.75589L6.38346 7.36916C6.04641 7.00668 5.86636 6.52565 5.88258 6.03095C5.89879 5.53626 6.10995 5.06804 6.47001 4.72841C6.83006 4.38879 7.3098 4.20531 7.8046 4.21799C8.2994 4.23066 8.76911 4.43847 9.1113 4.79609C9.29027 4.6269 9.50086 4.49469 9.73102 4.40703C9.96117 4.31938 10.2064 4.278 10.4525 4.28527C10.6987 4.29254 10.941 4.34832 11.1656 4.44941C11.3902 4.5505 11.5926 4.69491 11.7613 4.87438C12.1019 5.2363 12.2851 5.71856 12.2706 6.21536C12.2561 6.71216 12.0451 7.18292 11.6839 7.52436L9.29716 9.77511C9.21021 9.85736 9.095 9.90308 8.97532 9.90284ZM7.74719 5.14583C7.56409 5.14551 7.38491 5.19889 7.23183 5.29936C7.07876 5.39984 6.95851 5.543 6.88596 5.71112C6.81342 5.87924 6.79177 6.06494 6.8237 6.24524C6.85563 6.42554 6.93972 6.59252 7.06558 6.72552L8.99458 8.77123L11.0403 6.84219C11.1298 6.75776 11.2019 6.65652 11.2523 6.54426C11.3027 6.43199 11.3305 6.31089 11.3341 6.18788C11.3377 6.06487 11.3171 5.94235 11.2733 5.82731C11.2296 5.71228 11.1636 5.60699 11.0792 5.51745C10.9948 5.42792 10.8935 5.35588 10.7813 5.30547C10.669 5.25506 10.5479 5.22725 10.4249 5.22364C10.3019 5.22003 10.1794 5.24068 10.0643 5.28442C9.9493 5.32815 9.84401 5.39412 9.75447 5.47855C9.65247 5.57428 9.57387 5.69222 9.52479 5.82322C9.4885 5.91327 9.42597 5.99032 9.34531 6.04436C9.26466 6.09841 9.16962 6.12695 9.07254 6.12627C8.97508 6.12331 8.88097 6.09007 8.80328 6.03117C8.72559 5.97226 8.66818 5.89062 8.63903 5.79758C8.59724 5.66375 8.52554 5.54119 8.42936 5.43917C8.34172 5.34626 8.23597 5.2723 8.11864 5.22184C8.0013 5.17139 7.87491 5.14552 7.74719 5.14583Z" fill="#603913"/>
<path d="M42.7552 4.64703V3.47811C42.7557 3.38648 42.7381 3.29565 42.7035 3.21081C42.6688 3.12597 42.6178 3.04879 42.5534 2.98366C42.4889 2.91853 42.4122 2.86674 42.3278 2.83124C42.2433 2.79575 42.1526 2.77723 42.061 2.77677C41.8759 2.77772 41.6988 2.85215 41.5686 2.98367C41.4385 3.1152 41.3658 3.29305 41.3668 3.47811C41.3683 3.78655 41.2473 4.08298 41.0303 4.30219C40.8134 4.5214 40.5182 4.64545 40.2098 4.64703H39.9781V7.45246H42.8965C43.1167 7.45159 43.3293 7.37254 43.4965 7.22941C43.6638 7.08628 43.7747 6.88839 43.8096 6.67105L43.9638 5.73594C43.9866 5.60268 43.98 5.46607 43.9447 5.33559C43.9094 5.20511 43.8461 5.08387 43.7592 4.98028C43.6724 4.8767 43.564 4.79324 43.4417 4.73569C43.3194 4.67815 43.186 4.6479 43.0508 4.64703H42.7552Z" fill="#F0F0FF"/>
<path d="M41.9865 10.6975C40.9477 10.6972 39.9345 10.375 39.0865 9.77511C38.3067 9.22862 37.6954 8.4748 37.3218 7.59894C36.5732 7.40512 35.7852 7.42624 35.0481 7.65988C34.9634 7.6866 34.873 7.68877 34.7872 7.66612C34.7014 7.64346 34.6238 7.59693 34.5634 7.53191C34.503 7.4669 34.4623 7.38608 34.4461 7.29885C34.4298 7.21163 34.4386 7.12157 34.4715 7.03916C34.4861 7.00304 34.5047 6.96866 34.5269 6.93664C35.1198 6.09794 35.9546 5.46016 36.9196 5.10852C36.9946 4.21492 37.3016 3.35639 37.8103 2.61791C38.1887 2.06368 38.6735 1.59016 39.2365 1.22483C39.7995 0.859499 40.4294 0.60964 41.0897 0.489757C41.75 0.369874 42.4276 0.382357 43.083 0.52648C43.7385 0.670603 44.3588 0.943495 44.9079 1.32931C46.0173 2.11613 46.7729 3.30758 47.0115 4.64655C47.2502 5.98551 46.9529 7.36464 46.1837 8.48633C45.7164 9.16816 45.09 9.72586 44.3586 10.1112C43.6273 10.4965 42.8131 10.6976 41.9865 10.6975ZM36.2895 6.52963C36.8057 6.52986 37.3188 6.60889 37.8111 6.764C37.8792 6.78531 37.9415 6.82186 37.9933 6.87089C38.0451 6.91991 38.085 6.98011 38.11 7.04689C38.4051 7.83876 38.9335 8.5225 39.6253 9.00781C40.073 9.32236 40.5787 9.5448 41.1131 9.66219C41.6476 9.77959 42.2 9.7896 42.7383 9.69165C43.2766 9.5937 43.7901 9.38974 44.2489 9.09163C44.7077 8.79351 45.1027 8.40719 45.411 7.9551C46.041 7.03722 46.2849 5.90841 46.09 4.8123C45.895 3.71618 45.2769 2.74066 44.3691 2.09628C43.9213 1.78172 43.4151 1.55928 42.8807 1.44189C42.3463 1.32449 41.7938 1.31449 41.2555 1.41244C40.7172 1.5104 40.2037 1.71437 39.7449 2.01251C39.2861 2.31064 38.8911 2.69699 38.5829 3.1491C38.1134 3.8306 37.8548 4.63519 37.8395 5.46261C37.8374 5.56219 37.8037 5.65852 37.7432 5.73763C37.6827 5.81674 37.5986 5.8745 37.503 5.90253C37.0446 6.0366 36.6128 6.24892 36.2267 6.53009C36.2479 6.52963 36.2689 6.52963 36.2895 6.52963ZM42.897 7.9212H39.9781C39.9166 7.92124 39.8556 7.90914 39.7987 7.8856C39.7418 7.86205 39.6901 7.82753 39.6466 7.78399C39.6031 7.74046 39.5685 7.68877 39.545 7.63188C39.5215 7.57499 39.5094 7.51402 39.5094 7.45245V4.64689C39.5094 4.52257 39.5588 4.40334 39.6467 4.31544C39.7346 4.22753 39.8538 4.17814 39.9781 4.17814H40.2098C40.3938 4.17636 40.5695 4.10167 40.6985 3.97046C40.8275 3.83925 40.8992 3.66224 40.8978 3.47825C40.8969 3.32491 40.9262 3.17289 40.9842 3.03094C41.0422 2.88899 41.1277 2.75991 41.2358 2.65114C41.3439 2.54236 41.4724 2.45604 41.614 2.39713C41.7556 2.33823 41.9074 2.3079 42.0608 2.3079C42.2141 2.3079 42.3659 2.33823 42.5075 2.39713C42.6491 2.45604 42.7776 2.54236 42.8857 2.65114C42.9938 2.75991 43.0793 2.88899 43.1373 3.03094C43.1953 3.17289 43.2247 3.32491 43.2237 3.47825V4.18869C43.5692 4.23237 43.8858 4.40403 44.1109 4.66977C44.2433 4.8258 44.34 5.0088 44.3945 5.20604C44.449 5.40328 44.4598 5.61002 44.4263 5.81188L44.272 6.74755C44.22 7.07482 44.053 7.37281 43.8009 7.58794C43.5489 7.80307 43.2283 7.92124 42.897 7.9212ZM40.4469 6.9837H42.897C43.006 6.98313 43.1113 6.94367 43.1938 6.87243C43.2764 6.8012 43.3308 6.70285 43.3474 6.59506L43.5016 5.65939C43.5128 5.59168 43.5092 5.52234 43.4909 5.45618C43.4727 5.39002 43.4402 5.32862 43.3959 5.27624C43.3538 5.22579 43.301 5.18524 43.2415 5.15748C43.1819 5.12972 43.1169 5.11542 43.0512 5.11559H42.755C42.6307 5.11559 42.5115 5.06621 42.4236 4.9783C42.3357 4.89039 42.2863 4.77117 42.2863 4.64684V3.47825C42.2872 3.44803 42.2821 3.41793 42.2712 3.38972C42.2603 3.36152 42.2439 3.3358 42.2229 3.31408C42.2018 3.29236 42.1767 3.27509 42.1488 3.26329C42.121 3.2515 42.0911 3.24542 42.0608 3.24542C42.0306 3.24542 42.0007 3.2515 41.9728 3.26329C41.945 3.27509 41.9198 3.29236 41.8988 3.31408C41.8777 3.3358 41.8613 3.36152 41.8504 3.38972C41.8395 3.41793 41.8344 3.44803 41.8354 3.47825C41.836 3.86975 41.6963 4.24852 41.4415 4.54579C41.1868 4.84306 40.8339 5.03914 40.4469 5.09844L40.4469 6.9837Z" fill="#603913"/>
<path d="M47.0298 18.8637C47.1492 19.5792 47.0989 20.3127 46.8828 21.0052C46.6666 21.6976 46.2908 22.3296 45.7856 22.8501C45.2804 23.3707 44.6599 23.7652 43.9742 24.0019C43.2885 24.2386 42.5568 24.3109 41.838 24.2129C41.1193 24.1148 40.4336 23.8493 39.8364 23.4376C39.2391 23.026 38.7469 22.4797 38.3995 21.8429C38.0521 21.2061 37.8593 20.4965 37.8364 19.7715C37.8136 19.0465 37.9615 18.3262 38.2682 17.6688C37.8418 16.8223 37.1679 16.1257 36.3359 15.6715L36.3402 15.6697C37.3623 15.5138 38.407 15.709 39.3039 16.2234C39.9657 15.5944 40.8002 15.1772 41.7005 15.0252C42.3026 14.9259 42.9185 14.9464 43.5126 15.0858C44.1068 15.2251 44.6675 15.4804 45.1627 15.8371C45.6579 16.1938 46.0778 16.6447 46.3982 17.1641C46.7186 17.6835 46.9332 18.2611 47.0298 18.8637Z" fill="#99DB6E"/>
<path d="M47.0298 18.8637C46.8369 17.6632 46.1798 16.5868 45.2002 15.8666C44.2206 15.1464 42.9971 14.8402 41.7938 15.0142C42.7361 15.1611 43.6192 15.5666 44.3448 16.1856C45.0703 16.8045 45.6099 17.6127 45.9035 18.5201C46.197 19.4274 46.2331 20.3985 46.0076 21.3251C45.7821 22.2518 45.3039 23.0977 44.6262 23.7688C45.489 23.3047 46.1848 22.582 46.6159 21.7023C47.047 20.8225 47.1917 19.8299 47.0298 18.8637Z" fill="#B1F1A8"/>
<path d="M43.8399 23.8391C42.8016 23.8267 41.7969 23.4697 40.9837 22.8242C40.1705 22.1787 39.5948 21.2812 39.3471 20.2729C39.0995 19.2646 39.194 18.2025 39.6157 17.2537C40.0373 16.3049 40.7624 15.5231 41.6768 15.0312C40.7854 15.186 39.9598 15.6008 39.3036 16.2236C38.4068 15.7091 37.362 15.514 36.34 15.6699L36.3357 15.6717C37.1677 16.1258 37.8418 16.8225 38.2682 17.669C37.8734 18.525 37.7454 19.4799 37.9009 20.4096C37.9974 21.0123 38.2121 21.5899 38.5325 22.1093C38.853 22.6287 39.2729 23.0797 39.7681 23.4364C40.2633 23.7931 40.8242 24.0484 41.4184 24.1877C42.0126 24.327 42.6284 24.3475 43.2306 24.2481C43.7208 24.1645 44.1942 24.0016 44.6321 23.7659C44.3707 23.8132 44.1056 23.8376 43.8399 23.8391Z" fill="#84BF6F"/>
<path d="M40.1375 20.5662C40.6487 20.5662 41.0632 20.1476 41.0632 19.6311C41.0632 19.1146 40.6487 18.6959 40.1375 18.6959C39.6262 18.6959 39.2117 19.1146 39.2117 19.6311C39.2117 20.1476 39.6262 20.5662 40.1375 20.5662Z" fill="#F0F0FF"/>
<path d="M42.4513 20.5662C42.9626 20.5662 43.3771 20.1476 43.3771 19.6311C43.3771 19.1146 42.9626 18.6959 42.4513 18.6959C41.94 18.6959 41.5255 19.1146 41.5255 19.6311C41.5255 20.1476 41.94 20.5662 42.4513 20.5662Z" fill="#99DB6E"/>
<path d="M44.7655 20.5662C45.2768 20.5662 45.6913 20.1476 45.6913 19.6311C45.6913 19.1146 45.2768 18.6959 44.7655 18.6959C44.2542 18.6959 43.8397 19.1146 43.8397 19.6311C43.8397 20.1476 44.2542 20.5662 44.7655 20.5662Z" fill="#99DB6E"/>
<path d="M42.4513 20.5662C42.9626 20.5662 43.3771 20.1476 43.3771 19.6311C43.3771 19.1146 42.9626 18.6959 42.4513 18.6959C41.94 18.6959 41.5255 19.1146 41.5255 19.6311C41.5255 20.1476 41.94 20.5662 42.4513 20.5662Z" fill="#F0F0FF"/>
<path d="M44.7655 20.5662C45.2768 20.5662 45.6913 20.1476 45.6913 19.6311C45.6913 19.1146 45.2768 18.6959 44.7655 18.6959C44.2542 18.6959 43.8397 19.1146 43.8397 19.6311C43.8397 20.1476 44.2542 20.5662 44.7655 20.5662Z" fill="#F0F0FF"/>
<path d="M47.4921 18.7865C47.3839 18.1175 47.1438 17.4767 46.7857 16.9013C46.4276 16.3259 45.9587 15.8275 45.4062 15.435C44.4974 14.7855 43.3992 14.4552 42.2829 14.4955C41.1666 14.5359 40.0951 14.9446 39.2355 15.6579C38.3166 15.2069 37.2812 15.0493 36.2697 15.2066C36.2269 15.2133 36.1852 15.2256 36.1456 15.2432C36.0656 15.2788 35.9973 15.336 35.9481 15.4084C35.899 15.4808 35.8712 15.5656 35.8677 15.653C35.8642 15.7404 35.8853 15.8271 35.9285 15.9032C35.9717 15.9793 36.0353 16.0418 36.1122 16.0836C36.7969 16.4559 37.3637 17.0127 37.7481 17.6908C37.3115 18.7663 37.2494 19.9574 37.5717 21.0724C37.894 22.1875 38.5821 23.1618 39.5251 23.8385C40.3792 24.4519 41.4042 24.782 42.4558 24.7824C43.2019 24.7822 43.939 24.6188 44.6153 24.3036C45.2916 23.9883 45.8907 23.5289 46.3706 22.9576C46.8505 22.3863 47.1996 21.7168 47.3933 20.9963C47.5871 20.2757 47.6208 19.5215 47.4921 18.7865ZM43.1525 23.7857C42.6172 23.8777 42.0689 23.8623 41.5396 23.7403C41.0103 23.6184 40.5105 23.3923 40.0694 23.0752C39.6175 22.754 39.2339 22.3461 38.941 21.8753C38.6481 21.4045 38.4517 20.8802 38.3632 20.3328C38.2233 19.4956 38.3385 18.6356 38.6937 17.8646C38.7233 17.8005 38.738 17.7306 38.7367 17.6601C38.7354 17.5895 38.7182 17.5202 38.6864 17.4572C38.4429 16.9741 38.1249 16.5323 37.7442 16.148C38.2109 16.2316 38.6598 16.3948 39.0712 16.6305C39.1585 16.6805 39.2596 16.7011 39.3595 16.689C39.4594 16.677 39.5527 16.633 39.6256 16.5636C40.32 15.904 41.2224 15.5067 42.1779 15.44C43.1333 15.3733 44.0822 15.6413 44.8615 16.198C45.5358 16.6814 46.0527 17.3528 46.3478 18.1282C46.6428 18.9036 46.703 19.7488 46.5206 20.5582C46.3383 21.3675 45.9216 22.1053 45.3226 22.6793C44.7235 23.2533 43.9689 23.638 43.1525 23.7857ZM44.7657 18.2271C44.5365 18.2275 44.311 18.2844 44.1092 18.3928C43.9074 18.5012 43.7354 18.6578 43.6086 18.8487C43.4821 18.6575 43.3103 18.5007 43.1084 18.3923C42.9065 18.2838 42.6808 18.227 42.4517 18.227C42.2225 18.227 41.9968 18.2838 41.7949 18.3923C41.5931 18.5007 41.4212 18.6575 41.2947 18.8487C41.127 18.5989 40.8834 18.4096 40.6 18.3087C40.3166 18.2078 40.0082 18.2006 39.7204 18.2883C39.4326 18.3759 39.1805 18.5537 39.0014 18.7955C38.8223 19.0372 38.7257 19.3301 38.7257 19.631C38.7257 19.9319 38.8223 20.2248 39.0014 20.4665C39.1805 20.7083 39.4326 20.8861 39.7204 20.9737C40.0082 21.0614 40.3166 21.0542 40.6 20.9533C40.8834 20.8524 41.127 20.6631 41.2947 20.4133C41.4213 20.6044 41.5932 20.761 41.795 20.8694C41.9969 20.9778 42.2225 21.0346 42.4517 21.0346C42.6808 21.0346 42.9064 20.9778 43.1083 20.8694C43.3102 20.761 43.4821 20.6044 43.6086 20.4133C43.7445 20.6121 43.9293 20.7723 44.1453 20.8786C44.3612 20.9849 44.6009 21.0336 44.8412 21.0201C45.0816 21.0065 45.3143 20.9311 45.5169 20.8012C45.7195 20.6712 45.8851 20.4912 45.9977 20.2785C46.1103 20.0657 46.166 19.8275 46.1595 19.5869C46.153 19.3463 46.0845 19.1115 45.9606 18.9051C45.8366 18.6988 45.6615 18.528 45.4522 18.4092C45.2428 18.2904 45.0064 18.2277 44.7657 18.2271ZM40.1375 20.0971C40.0448 20.099 39.9538 20.0732 39.8758 20.0231C39.7979 19.973 39.7367 19.9008 39.6999 19.8158C39.6632 19.7308 39.6526 19.6367 39.6695 19.5456C39.6865 19.4545 39.7302 19.3706 39.795 19.3044C39.8599 19.2383 39.943 19.1929 40.0337 19.1742C40.1244 19.1555 40.2187 19.1642 40.3044 19.1992C40.3902 19.2343 40.4635 19.2941 40.5152 19.371C40.5668 19.4479 40.5944 19.5385 40.5943 19.6311C40.5953 19.7534 40.5478 19.8711 40.4622 19.9585C40.3765 20.0458 40.2598 20.0957 40.1375 20.0971ZM42.4515 20.0971C42.3589 20.099 42.2678 20.0732 42.1899 20.0231C42.1119 19.973 42.0507 19.9008 42.014 19.8158C41.9772 19.7308 41.9666 19.6367 41.9836 19.5456C42.0005 19.4545 42.0442 19.3706 42.109 19.3044C42.1739 19.2383 42.257 19.1929 42.3477 19.1742C42.4384 19.1555 42.5327 19.1642 42.6184 19.1992C42.7042 19.2343 42.7776 19.2941 42.8292 19.371C42.8808 19.4479 42.9084 19.5385 42.9083 19.6311C42.9093 19.7534 42.8618 19.8711 42.7762 19.9585C42.6906 20.0458 42.5738 20.0957 42.4515 20.0971ZM44.7655 20.0971C44.6729 20.099 44.5818 20.0732 44.5038 20.0231C44.4259 19.973 44.3647 19.9008 44.3279 19.8158C44.2912 19.7308 44.2806 19.6367 44.2976 19.5456C44.3145 19.4545 44.3582 19.3706 44.423 19.3044C44.4879 19.2383 44.571 19.1929 44.6617 19.1742C44.7524 19.1555 44.8467 19.1642 44.9324 19.1992C45.0182 19.2343 45.0916 19.2941 45.1432 19.371C45.1948 19.4479 45.2224 19.5385 45.2223 19.6311C45.2233 19.7534 45.1758 19.8711 45.0902 19.9585C45.0046 20.0458 44.8878 20.0957 44.7655 20.0971Z" fill="#603913"/>
</svg>
