<svg width="43" height="42" viewBox="0 0 43 42" fill="none" xmlns="http://www.w3.org/2000/svg">
<rect x="0.5" width="42" height="42" rx="21" fill="#5F69C8" fill-opacity="0.2"/>
<path d="M24.8334 27.1666H18.1667C15.7334 27.1666 14.3334 25.7666 14.3334 23.3333V18.6666C14.3334 16.2333 15.7334 14.8333 18.1667 14.8333H24.8334C27.2667 14.8333 28.6667 16.2333 28.6667 18.6666V23.3333C28.6667 25.7666 27.2667 27.1666 24.8334 27.1666ZM18.1667 15.8333C16.26 15.8333 15.3334 16.7599 15.3334 18.6666V23.3333C15.3334 25.2399 16.26 26.1666 18.1667 26.1666H24.8334C26.74 26.1666 27.6667 25.2399 27.6667 23.3333V18.6666C27.6667 16.7599 26.74 15.8333 24.8334 15.8333H18.1667Z" fill="#5F69C8"/>
<path d="M21.4992 21.58C20.9392 21.58 20.3725 21.4066 19.9392 21.0533L17.8525 19.3866C17.6392 19.2133 17.5992 18.9 17.7725 18.6866C17.9459 18.4733 18.2592 18.4333 18.4725 18.6066L20.5592 20.2733C21.0659 20.68 21.9259 20.68 22.4325 20.2733L24.5192 18.6066C24.7325 18.4333 25.0525 18.4666 25.2192 18.6866C25.3925 18.9 25.3592 19.22 25.1392 19.3866L23.0525 21.0533C22.6259 21.4066 22.0592 21.58 21.4992 21.58Z" fill="#5B65C0"/>
</svg>
