<svg width="42" height="42" viewBox="0 0 42 42" fill="none" xmlns="http://www.w3.org/2000/svg">
<rect width="42" height="42" rx="21" fill="#4169E1" fill-opacity="0.16"/>
<mask id="path-2-inside-1_1598_1042" fill="white">
<path d="M24.3334 27.1666H17.6667C15.2334 27.1666 13.8334 25.7666 13.8334 23.3333V18.6666C13.8334 16.2333 15.2334 14.8333 17.6667 14.8333H24.3334C26.7667 14.8333 28.1667 16.2333 28.1667 18.6666V23.3333C28.1667 25.7666 26.7667 27.1666 24.3334 27.1666ZM17.6667 15.8333C15.76 15.8333 14.8334 16.7599 14.8334 18.6666V23.3333C14.8334 25.2399 15.76 26.1666 17.6667 26.1666H24.3334C26.24 26.1666 27.1667 25.2399 27.1667 23.3333V18.6666C27.1667 16.7599 26.24 15.8333 24.3334 15.8333H17.6667Z"/>
</mask>
<path d="M24.3334 27.1666H17.6667C15.2334 27.1666 13.8334 25.7666 13.8334 23.3333V18.6666C13.8334 16.2333 15.2334 14.8333 17.6667 14.8333H24.3334C26.7667 14.8333 28.1667 16.2333 28.1667 18.6666V23.3333C28.1667 25.7666 26.7667 27.1666 24.3334 27.1666ZM17.6667 15.8333C15.76 15.8333 14.8334 16.7599 14.8334 18.6666V23.3333C14.8334 25.2399 15.76 26.1666 17.6667 26.1666H24.3334C26.24 26.1666 27.1667 25.2399 27.1667 23.3333V18.6666C27.1667 16.7599 26.24 15.8333 24.3334 15.8333H17.6667Z" fill="#4169E1"/>
<path d="M24.3334 26.1666H17.6667V28.1666H24.3334V26.1666ZM17.6667 26.1666C16.6399 26.1666 15.964 25.8746 15.5446 25.4553C15.1253 25.036 14.8334 24.3601 14.8334 23.3333H12.8334C12.8334 24.7397 13.2414 25.9805 14.1304 26.8695C15.0195 27.7585 16.2602 28.1666 17.6667 28.1666V26.1666ZM14.8334 23.3333V18.6666H12.8334V23.3333H14.8334ZM14.8334 18.6666C14.8334 17.6397 15.1253 16.9638 15.5446 16.5445C15.964 16.1252 16.6399 15.8333 17.6667 15.8333V13.8333C16.2602 13.8333 15.0195 14.2413 14.1304 15.1303C13.2414 16.0193 12.8334 17.2601 12.8334 18.6666H14.8334ZM17.6667 15.8333H24.3334V13.8333H17.6667V15.8333ZM24.3334 15.8333C25.3602 15.8333 26.0361 16.1252 26.4554 16.5445C26.8747 16.9638 27.1667 17.6397 27.1667 18.6666H29.1667C29.1667 17.2601 28.7587 16.0193 27.8696 15.1303C26.9806 14.2413 25.7399 13.8333 24.3334 13.8333V15.8333ZM27.1667 18.6666V23.3333H29.1667V18.6666H27.1667ZM27.1667 23.3333C27.1667 24.3601 26.8747 25.036 26.4554 25.4553C26.0361 25.8746 25.3602 26.1666 24.3334 26.1666V28.1666C25.7399 28.1666 26.9806 27.7585 27.8696 26.8695C28.7587 25.9805 29.1667 24.7397 29.1667 23.3333H27.1667ZM17.6667 14.8333C16.5664 14.8333 15.5552 15.1006 14.8279 15.8278C14.1007 16.555 13.8334 17.5663 13.8334 18.6666H15.8334C15.8334 17.8602 16.0294 17.4548 16.2421 17.242C16.4549 17.0293 16.8604 16.8333 17.6667 16.8333V14.8333ZM13.8334 18.6666V23.3333H15.8334V18.6666H13.8334ZM13.8334 23.3333C13.8334 24.4336 14.1007 25.4448 14.8279 26.172C15.5552 26.8993 16.5664 27.1666 17.6667 27.1666V25.1666C16.8604 25.1666 16.4549 24.9706 16.2421 24.7578C16.0294 24.545 15.8334 24.1396 15.8334 23.3333H13.8334ZM17.6667 27.1666H24.3334V25.1666H17.6667V27.1666ZM24.3334 27.1666C25.4337 27.1666 26.4449 26.8993 27.1721 26.172C27.8994 25.4448 28.1667 24.4336 28.1667 23.3333H26.1667C26.1667 24.1396 25.9707 24.545 25.7579 24.7578C25.5452 24.9706 25.1397 25.1666 24.3334 25.1666V27.1666ZM28.1667 23.3333V18.6666H26.1667V23.3333H28.1667ZM28.1667 18.6666C28.1667 17.5663 27.8994 16.555 27.1721 15.8278C26.4449 15.1006 25.4337 14.8333 24.3334 14.8333V16.8333C25.1397 16.8333 25.5452 17.0293 25.7579 17.242C25.9707 17.4548 26.1667 17.8602 26.1667 18.6666H28.1667ZM24.3334 14.8333H17.6667V16.8333H24.3334V14.8333Z" fill="#4169E1" mask="url(#path-2-inside-1_1598_1042)"/>
<path d="M20.9992 21.08C20.7232 21.08 20.4515 21.0287 20.2068 20.9299C20.4604 21.0312 20.7328 21.0783 20.9959 21.0783C21.3568 21.0783 21.7352 20.9897 22.0584 20.794C21.7577 20.9806 21.3837 21.08 20.9992 21.08Z" fill="#4169E1" stroke="#4169E1"/>
</svg>
