<svg width="42" height="42" viewBox="0 0 42 42" fill="none" xmlns="http://www.w3.org/2000/svg">
<rect width="42" height="42" rx="21" fill="#4169E1" fill-opacity="0.16"/>
<path d="M21.0005 22.4465C19.5805 22.4465 18.4205 21.2932 18.4205 19.8665C18.4205 18.4399 19.5805 17.2932 21.0005 17.2932C22.4205 17.2932 23.5805 18.4465 23.5805 19.8732C23.5805 21.2999 22.4205 22.4465 21.0005 22.4465ZM21.0005 18.2932C20.1339 18.2932 19.4205 18.9999 19.4205 19.8732C19.4205 20.7465 20.1272 21.4532 21.0005 21.4532C21.8739 21.4532 22.5805 20.7465 22.5805 19.8732C22.5805 18.9999 21.8672 18.2932 21.0005 18.2932Z" fill="#4169E1"/>
<path d="M20.9998 28.1733C20.0131 28.1733 19.0198 27.7999 18.2464 27.0599C16.2798 25.1666 14.1064 22.1466 14.9264 18.5533C15.6664 15.2933 18.5131 13.8333 20.9998 13.8333C20.9998 13.8333 20.9998 13.8333 21.0064 13.8333C23.4931 13.8333 26.3398 15.2933 27.0798 18.5599C27.8931 22.1533 25.7198 25.1666 23.7531 27.0599C22.9798 27.7999 21.9864 28.1733 20.9998 28.1733ZM20.9998 14.8333C19.0598 14.8333 16.5664 15.8666 15.9064 18.7733C15.1864 21.9133 17.1598 24.6199 18.9464 26.3333C20.0998 27.4466 21.9064 27.4466 23.0598 26.3333C24.8398 24.6199 26.8131 21.9133 26.1064 18.7733C25.4397 15.8666 22.9398 14.8333 20.9998 14.8333Z" fill="#4169E1"/>
</svg>
