<svg width="43" height="42" viewBox="0 0 43 42" fill="none" xmlns="http://www.w3.org/2000/svg">
<rect x="0.5" width="42" height="42" rx="21" fill="#5F69C8" fill-opacity="0.2"/>
<path d="M21.5005 22.4465C20.0805 22.4465 18.9205 21.2932 18.9205 19.8665C18.9205 18.4399 20.0805 17.2932 21.5005 17.2932C22.9205 17.2932 24.0805 18.4465 24.0805 19.8732C24.0805 21.2999 22.9205 22.4465 21.5005 22.4465ZM21.5005 18.2932C20.6339 18.2932 19.9205 18.9999 19.9205 19.8732C19.9205 20.7465 20.6272 21.4532 21.5005 21.4532C22.3739 21.4532 23.0805 20.7465 23.0805 19.8732C23.0805 18.9999 22.3672 18.2932 21.5005 18.2932Z" fill="#5F69C8"/>
<path d="M21.4998 28.1733C20.5131 28.1733 19.5198 27.7999 18.7464 27.0599C16.7798 25.1666 14.6064 22.1466 15.4264 18.5533C16.1664 15.2933 19.0131 13.8333 21.4998 13.8333C21.4998 13.8333 21.4998 13.8333 21.5064 13.8333C23.9931 13.8333 26.8398 15.2933 27.5798 18.5599C28.3931 22.1533 26.2198 25.1666 24.2531 27.0599C23.4798 27.7999 22.4864 28.1733 21.4998 28.1733ZM21.4998 14.8333C19.5598 14.8333 17.0664 15.8666 16.4064 18.7733C15.6864 21.9133 17.6598 24.6199 19.4464 26.3333C20.5998 27.4466 22.4064 27.4466 23.5598 26.3333C25.3398 24.6199 27.3131 21.9133 26.6064 18.7733C25.9397 15.8666 23.4398 14.8333 21.4998 14.8333Z" fill="#5F69C8"/>
</svg>
