<svg width="43" height="42" viewBox="0 0 43 42" fill="none" xmlns="http://www.w3.org/2000/svg">
<rect x="0.5" width="42" height="42" rx="21" fill="#5F69C8" fill-opacity="0.2"/>
<path d="M28.146 25.2199C28.146 25.4599 28.0926 25.7066 27.9793 25.9466C27.866 26.1866 27.7193 26.4133 27.526 26.6266C27.1993 26.9866 26.8393 27.2466 26.4326 27.4133C26.0326 27.5799 25.5993 27.6666 25.1326 27.6666C24.4526 27.6666 23.726 27.5066 22.9593 27.1799C22.1926 26.8533 21.426 26.4133 20.666 25.8599C19.8993 25.2999 19.1726 24.6799 18.4793 23.9933C17.7926 23.2999 17.1726 22.5733 16.6193 21.8133C16.0726 21.0533 15.6326 20.2933 15.3126 19.5399C14.9926 18.7799 14.8326 18.0533 14.8326 17.3599C14.8326 16.9066 14.9126 16.4733 15.0726 16.0733C15.2326 15.6666 15.486 15.2933 15.8393 14.9599C16.266 14.5399 16.7326 14.3333 17.226 14.3333C17.4126 14.3333 17.5993 14.3733 17.766 14.4533C17.9393 14.5333 18.0926 14.6533 18.2126 14.8266L19.7593 17.0066C19.8793 17.1733 19.966 17.3266 20.026 17.4733C20.086 17.6133 20.1193 17.7533 20.1193 17.8799C20.1193 18.0399 20.0726 18.1999 19.9793 18.3533C19.8926 18.5066 19.766 18.6666 19.606 18.8266L19.0993 19.3533C19.026 19.4266 18.9926 19.5133 18.9926 19.6199C18.9926 19.6733 18.9993 19.7199 19.0126 19.7733C19.0326 19.8266 19.0526 19.8666 19.066 19.9066C19.186 20.1266 19.3926 20.4133 19.686 20.7599C19.986 21.1066 20.306 21.4599 20.6526 21.8133C21.0126 22.1666 21.3593 22.4933 21.7126 22.7933C22.0593 23.0866 22.346 23.2866 22.5726 23.4066C22.606 23.4199 22.646 23.4399 22.6926 23.4599C22.746 23.4799 22.7993 23.4866 22.8593 23.4866C22.9726 23.4866 23.0593 23.4466 23.1326 23.3733L23.6393 22.8733C23.806 22.7066 23.966 22.5799 24.1193 22.4999C24.2726 22.4066 24.426 22.3599 24.5926 22.3599C24.7193 22.3599 24.8526 22.3866 24.9993 22.4466C25.146 22.5066 25.2993 22.5933 25.466 22.7066L27.6726 24.2733C27.846 24.3933 27.966 24.5333 28.0393 24.6999C28.106 24.8666 28.146 25.0333 28.146 25.2199Z" stroke="#5F69C8" stroke-miterlimit="10"/>
</svg>

