<svg width="42" height="42" viewBox="0 0 42 42" fill="none" xmlns="http://www.w3.org/2000/svg">
<rect width="42" height="42" rx="21" fill="#4169E1" fill-opacity="0.16"/>
<path d="M27.646 25.2199C27.646 25.4599 27.5926 25.7066 27.4793 25.9466C27.366 26.1866 27.2193 26.4133 27.026 26.6266C26.6993 26.9866 26.3393 27.2466 25.9326 27.4133C25.5326 27.5799 25.0993 27.6666 24.6326 27.6666C23.9526 27.6666 23.226 27.5066 22.4593 27.1799C21.6926 26.8533 20.926 26.4133 20.166 25.8599C19.3993 25.2999 18.6726 24.6799 17.9793 23.9933C17.2926 23.2999 16.6726 22.5733 16.1193 21.8133C15.5726 21.0533 15.1326 20.2933 14.8126 19.5399C14.4926 18.7799 14.3326 18.0533 14.3326 17.3599C14.3326 16.9066 14.4126 16.4733 14.5726 16.0733C14.7326 15.6666 14.986 15.2933 15.3393 14.9599C15.766 14.5399 16.2326 14.3333 16.726 14.3333C16.9126 14.3333 17.0993 14.3733 17.266 14.4533C17.4393 14.5333 17.5926 14.6533 17.7126 14.8266L19.2593 17.0066C19.3793 17.1733 19.466 17.3266 19.526 17.4733C19.586 17.6133 19.6193 17.7533 19.6193 17.8799C19.6193 18.0399 19.5726 18.1999 19.4793 18.3533C19.3926 18.5066 19.266 18.6666 19.106 18.8266L18.5993 19.3533C18.526 19.4266 18.4926 19.5133 18.4926 19.6199C18.4926 19.6733 18.4993 19.7199 18.5126 19.7733C18.5326 19.8266 18.5526 19.8666 18.566 19.9066C18.686 20.1266 18.8926 20.4133 19.186 20.7599C19.486 21.1066 19.806 21.4599 20.1526 21.8133C20.5126 22.1666 20.8593 22.4933 21.2126 22.7933C21.5593 23.0866 21.846 23.2866 22.0726 23.4066C22.106 23.4199 22.146 23.4399 22.1926 23.4599C22.246 23.4799 22.2993 23.4866 22.3593 23.4866C22.4726 23.4866 22.5593 23.4466 22.6326 23.3733L23.1393 22.8733C23.306 22.7066 23.466 22.5799 23.6193 22.4999C23.7726 22.4066 23.926 22.3599 24.0926 22.3599C24.2193 22.3599 24.3526 22.3866 24.4993 22.4466C24.646 22.5066 24.7993 22.5933 24.966 22.7066L27.1726 24.2733C27.346 24.3933 27.466 24.5333 27.5393 24.6999C27.606 24.8666 27.646 25.0333 27.646 25.2199Z" stroke="#4169E1" stroke-miterlimit="10"/>
</svg>
