<svg width="13" height="9" viewBox="0 0 13 9" fill="none" xmlns="http://www.w3.org/2000/svg">
<path d="M12.0659 1.04256L4.99925 8.1092C4.93666 8.17233 4.85146 8.2078 4.76258 8.2078C4.6737 8.2078 4.5885 8.17233 4.52592 8.1092L0.932584 4.51587C0.869478 4.45334 0.833984 4.36814 0.833984 4.2792C0.833984 4.19034 0.869478 4.10514 0.932584 4.04254L1.39925 3.57587C1.46184 3.5128 1.54704 3.47727 1.63592 3.47727C1.7248 3.47727 1.81 3.5128 1.87258 3.57587L4.75925 6.46254L11.1259 0.095895C11.2578 -0.031965 11.4674 -0.031965 11.5992 0.095895L12.0659 0.569228C12.1291 0.631815 12.1645 0.717015 12.1645 0.805895C12.1645 0.894775 12.1291 0.979968 12.0659 1.04256Z" fill="#F0F1FC"/>
</svg>
